<?xml version="1.0" encoding="utf-8"?><svg version="1.1" id="Layer_1" xmlns="http://www.w3.org/2000/svg" xmlns:xlink="http://www.w3.org/1999/xlink" x="0px" y="0px" viewBox="0 0 108.19 122.88" style="enable-background:new 0 0 108.19 122.88" xml:space="preserve"><style type="text/css">.st0{fill-rule:evenodd;clip-rule:evenodd;}</style><g><path class="st0" d="M41.44,74.06c-0.52,0.81-0.81,1.65-0.92,2.5h13.05c3.51,0,6.39,2.88,6.39,6.39v6.39h-0.07v24.98 c0,3.51-2.88,6.39-6.39,6.39h-6.39V91.18c0-2.8-1.05-1.83-4.22-1.83H28.62V89.3h-8.19c-5.28,0-11.23-4.58-9.61-9.61l4.1-12.71 l15.9-25.69c2.83-4.57,8.88-6,13.45-3.17l4.11,2.54c4.23,2.62,5.14,5.17,5.17,7.82l5.5,5.68l2.89-12.05 c0.13-0.54,0.33-1.04,0.6-1.49c-1.42,0.51-2.94,0.79-4.53,0.79c-7.38,0-13.37-5.99-13.37-13.37c0-7.38,5.99-13.37,13.37-13.37 c7.38,0,13.37,5.99,13.37,13.37c0,3.93-1.7,7.46-4.39,9.91c0.49-0.02,0.99,0.02,1.49,0.14c2.91,0.69,4.71,3.62,4.02,6.53 l-4.85,20.2h36.83c0.31,0,0.57,0.26,0.57,0.57v8.14c0,0.31-0.26,0.57-0.57,0.57h-2.56v48.02c0,0.41-0.34,0.75-0.75,0.75h-6.44 c-0.41,0-0.75-0.34-0.75-0.75V74.1H50.23c-0.31,0-0.57-0.26-0.57-0.57V65.4c0-0.31,0.26-0.57,0.57-0.57h4.03l-4.33-4.48 L41.44,74.06L41.44,74.06z M50.31,1.48c0.17-0.41,0.64-0.61,1.05-0.44c0.41,0.17,0.61,0.64,0.44,1.05l-1.5,3.65l1.97-0.58 c0.43-0.13,0.88,0.12,1,0.55c0.06,0.2,0.04,0.4-0.04,0.57l-2.17,4.57c-0.19,0.4-0.67,0.58-1.08,0.39c-0.4-0.19-0.58-0.67-0.39-1.08 l1.4-2.94l-1.85,0.55c-0.17,0.05-0.36,0.04-0.53-0.03C48.2,7.58,48,7.11,48.17,6.69L50.31,1.48L50.31,1.48z M76.77,6.81 c0.42-0.15,0.88,0.08,1.03,0.5c0.15,0.42-0.08,0.88-0.5,1.03l-3.72,1.31l1.74,1.08c0.38,0.23,0.5,0.73,0.26,1.11 c-0.11,0.18-0.29,0.3-0.48,0.36l-4.85,1.42c-0.43,0.12-0.88-0.12-1-0.55c-0.12-0.43,0.12-0.88,0.55-1l3.12-0.91l-1.64-1.01 c-0.15-0.09-0.27-0.24-0.34-0.42c-0.15-0.42,0.08-0.88,0.5-1.03L76.77,6.81L76.77,6.81z M62.16,0.43c0.21-0.4,0.69-0.55,1.09-0.34 c0.39,0.21,0.55,0.69,0.34,1.09l-1.83,3.5l2.01-0.4c0.44-0.09,0.86,0.2,0.95,0.64c0.04,0.21,0,0.42-0.11,0.59l-2.57,4.33 c-0.23,0.38-0.72,0.51-1.11,0.28c-0.38-0.23-0.51-0.72-0.28-1.11l1.66-2.79l-1.89,0.38c-0.17,0.03-0.36,0.01-0.53-0.08 c-0.4-0.21-0.55-0.69-0.34-1.09L62.16,0.43L62.16,0.43z M74.31,62.83c-1.55,0-2.8-1.25-2.8-2.8c0-1.55,1.25-2.8,2.8-2.8h18.94 l9.64-19.63c0.68-1.38,2.35-1.96,3.73-1.28c1.38,0.68,1.96,2.35,1.28,3.73L97.6,61.03c-0.4,1.05-1.42,1.8-2.62,1.8H74.31 L74.31,62.83z M3.69,114.74c0.05-0.39,0.23-0.77,0.53-1.07c2.21-2.23,5.01-4.04,8.2-5.29c2.23-0.87,4.65-1.46,7.2-1.72l-0.48-7.61 H3.35c-1.81,0-3.29-1.48-3.29-3.29c0-13.6,3.2-23.83,0-39.32c-0.95-4.59,8.52-5.26,8.52,0.24v34.86h32.78 c1.81,0,3.28,2.41,3.28,4.22v2.56c0,0.4-0.33,0.72-0.73,0.72H24.98l-0.68,7.53c2.69,0.18,5.27,0.73,7.64,1.6 c3.05,1.11,5.76,2.74,7.96,4.76c0.53,0.48,0.72,1.2,0.55,1.84c0.85,0.64,1.4,1.65,1.4,2.8c0,1.93-1.56,3.49-3.49,3.49 c-1.93,0-3.49-1.56-3.49-3.49c0-1.15,0.56-2.18,1.42-2.81c-1.63-1.27-3.53-2.32-5.62-3.08c-2.24-0.82-4.72-1.31-7.33-1.41 l-0.38,3.78l-0.02,0.16c1.47,0.41,2.56,1.76,2.56,3.37c0,1.93-1.56,3.49-3.49,3.49c-1.93,0-3.49-1.56-3.49-3.49 c0-1.59,1.07-2.94,2.53-3.36l-0.01-0.18l-0.27-3.73c-2.49,0.17-4.85,0.7-6.99,1.53h-0.01c-2.09,0.81-3.98,1.92-5.58,3.24 c0.64,0.63,1.04,1.52,1.04,2.49c0,1.93-1.56,3.49-3.49,3.49c-1.93,0-3.49-1.56-3.49-3.49C2.24,116.41,2.81,115.38,3.69,114.74 L3.69,114.74z"/></g></svg>